<?xml version="1.0" encoding="UTF-8"?>
<svg xmlns="http://www.w3.org/2000/svg" viewBox="0 0 1280 660" width="1280" height="660" font-family="Arial, Helvetica, sans-serif">
<defs>
  <marker id="arr" viewBox="0 0 10 10" refX="9" refY="5" markerWidth="6" markerHeight="6" orient="auto">
    <path d="M0 0 L10 5 L0 10z" fill="#475569"/>
  </marker>
  <marker id="arr-b" viewBox="0 0 10 10" refX="9" refY="5" markerWidth="6" markerHeight="6" orient="auto">
    <path d="M0 0 L10 5 L0 10z" fill="#2563EB"/>
  </marker>
  <marker id="arr-g" viewBox="0 0 10 10" refX="9" refY="5" markerWidth="6" markerHeight="6" orient="auto">
    <path d="M0 0 L10 5 L0 10z" fill="#059669"/>
  </marker>
  <marker id="arr-r" viewBox="0 0 10 10" refX="9" refY="5" markerWidth="6" markerHeight="6" orient="auto">
    <path d="M0 0 L10 5 L0 10z" fill="#DC2626"/>
  </marker>
  <marker id="arr-p" viewBox="0 0 10 10" refX="9" refY="5" markerWidth="6" markerHeight="6" orient="auto">
    <path d="M0 0 L10 5 L0 10z" fill="#7C3AED"/>
  </marker>
</defs>

<!-- BACKGROUND -->
<rect width="1280" height="660" fill="#F8FAFC"/>

<!-- TITLE -->
<text x="640" y="34" font-size="21" font-weight="bold" text-anchor="middle" fill="#0F172A">AI Teaching Assistant — Interaction Flow</text>
<line x1="20" y1="44" x2="1260" y2="44" stroke="#CBD5E1" stroke-width="1.5"/>

<!-- ════════════════════════════════════════════════════════════════ -->
<!-- TWO-ROW LAYOUT                                                   -->
<!-- TOP ROW  (y ~90-310): Study Q&A Flow                            -->
<!-- BOTTOM ROW (y ~360-580): PDF Upload Flow                        -->
<!-- ════════════════════════════════════════════════════════════════ -->

<!-- ── TOP FLOW LABEL ── -->
<rect x="20" y="54" width="240" height="36" rx="6" fill="#E0F2FE" stroke="#38BDF8" stroke-width="1.5"/>
<text x="140" y="68" font-size="12" font-weight="bold" text-anchor="middle" fill="#0369A1">📚  Study Q&amp;A Flow</text>
<text x="140" y="83" font-size="10" text-anchor="middle" fill="#0284C7">ask a question about the material</text>

<!-- ── BOTTOM FLOW LABEL ── -->
<rect x="20" y="358" width="240" height="36" rx="6" fill="#FEF3C7" stroke="#FBBF24" stroke-width="1.5"/>
<text x="140" y="372" font-size="12" font-weight="bold" text-anchor="middle" fill="#78350F">📄  PDF Upload Flow</text>
<text x="140" y="387" font-size="10" text-anchor="middle" fill="#92400E">upload study material → ingest → curriculum</text>

<!-- ════════════════════════════════════════════════════════════════ -->
<!-- ACTOR HEADERS (x positions for 7 actors across 1280px)         -->
<!-- ════════════════════════════════════════════════════════════════ -->

<!-- Actor x-centers:
  User:        140
  Agent:       330
  TA Skill:    510
  MCP Server:  660
  TA API:      810
  RAG Server:  980
  Milvus:     1140
-->

<!-- ── ACTOR BOXES (TOP) ── -->
<!-- User -->
<rect x="60" y="102" width="160" height="58" rx="8" fill="#FFFBEB" stroke="#FBBF24" stroke-width="2"/>
<text x="140" y="126" font-size="13" font-weight="bold" text-anchor="middle" fill="#78350F">User</text>
<text x="140" y="143" font-size="10" text-anchor="middle" fill="#92400E">NemoClaw Chat</text>

<!-- OpenClaw Agent -->
<rect x="250" y="102" width="160" height="58" rx="8" fill="#ECFDF5" stroke="#34D399" stroke-width="2"/>
<text x="330" y="123" font-size="13" font-weight="bold" text-anchor="middle" fill="#065F46">OpenClaw</text>
<text x="330" y="139" font-size="12" font-weight="bold" text-anchor="middle" fill="#065F46">Agent</text>
<text x="330" y="153" font-size="10" text-anchor="middle" fill="#047857">Claude · sandbox</text>

<!-- TA Skill -->
<rect x="430" y="102" width="160" height="58" rx="8" fill="#DCFCE7" stroke="#16A34A" stroke-width="2"/>
<text x="510" y="123" font-size="13" font-weight="bold" text-anchor="middle" fill="#14532D">AI TA Skill</text>
<text x="510" y="139" font-size="12" font-weight="bold" text-anchor="middle" fill="#14532D"></text>
<text x="510" y="153" font-size="10" text-anchor="middle" fill="#15803D">MCP client · fastmcp</text>

<!-- MCP Server -->
<rect x="580" y="102" width="160" height="58" rx="8" fill="#FEF3C7" stroke="#F59E0B" stroke-width="2"/>
<text x="660" y="126" font-size="13" font-weight="bold" text-anchor="middle" fill="#78350F">MCP Server</text>
<text x="660" y="143" font-size="10" text-anchor="middle" fill="#92400E">fastmcp · port 8999</text>

<!-- TA API -->
<rect x="730" y="102" width="160" height="58" rx="8" fill="#DBEAFE" stroke="#3B82F6" stroke-width="2"/>
<text x="810" y="126" font-size="13" font-weight="bold" text-anchor="middle" fill="#1E3A8A">TA API</text>
<text x="810" y="143" font-size="10" text-anchor="middle" fill="#1D4ED8">FastAPI · port 8000</text>

<!-- RAG Server -->
<rect x="900" y="102" width="160" height="58" rx="8" fill="#EDE9FE" stroke="#8B5CF6" stroke-width="2"/>
<text x="980" y="126" font-size="13" font-weight="bold" text-anchor="middle" fill="#4C1D95">RAG Server</text>
<text x="980" y="143" font-size="10" text-anchor="middle" fill="#5B21B6">LangChain · :8081</text>

<!-- Milvus -->
<rect x="1060" y="102" width="160" height="58" rx="8" fill="#F5F3FF" stroke="#7C3AED" stroke-width="2"/>
<text x="1140" y="126" font-size="13" font-weight="bold" text-anchor="middle" fill="#4C1D95">Milvus</text>
<text x="1140" y="143" font-size="10" text-anchor="middle" fill="#5B21B6">Vector DB · :19530</text>

<!-- Vertical swim-lane lines (subtle dashes) -->
<line x1="140" y1="160" x2="140" y2="310" stroke="#E2E8F0" stroke-width="1" stroke-dasharray="4,4"/>
<line x1="330" y1="160" x2="330" y2="310" stroke="#E2E8F0" stroke-width="1" stroke-dasharray="4,4"/>
<line x1="510" y1="160" x2="510" y2="310" stroke="#E2E8F0" stroke-width="1" stroke-dasharray="4,4"/>
<line x1="660" y1="160" x2="660" y2="310" stroke="#E2E8F0" stroke-width="1" stroke-dasharray="4,4"/>
<line x1="810" y1="160" x2="810" y2="310" stroke="#E2E8F0" stroke-width="1" stroke-dasharray="4,4"/>
<line x1="980" y1="160" x2="980" y2="310" stroke="#E2E8F0" stroke-width="1" stroke-dasharray="4,4"/>
<line x1="1140" y1="160" x2="1140" y2="310" stroke="#E2E8F0" stroke-width="1" stroke-dasharray="4,4"/>

<!-- ════ TOP FLOW STEPS (Q&A) ════ -->

<!-- Step 1: User → Agent -->
<circle cx="220" cy="180" r="11" fill="#0F172A"/>
<text x="220" y="184" font-size="10" font-weight="bold" text-anchor="middle" fill="white">1</text>
<line x1="152" y1="180" x2="247" y2="180" stroke="#334155" stroke-width="2" marker-end="url(#arr)"/>
<text x="200" y="172" font-size="10" text-anchor="middle" fill="#334155">"Explain subtopic 2"</text>

<!-- Step 2: Agent → TA Skill (tool call) -->
<circle cx="420" cy="205" r="11" fill="#059669"/>
<text x="420" y="209" font-size="10" font-weight="bold" text-anchor="middle" fill="white">2</text>
<line x1="342" y1="205" x2="437" y2="205" stroke="#059669" stroke-width="2" marker-end="url(#arr-g)"/>
<text x="390" y="197" font-size="10" text-anchor="middle" fill="#047857">calls chat_message</text>
<text x="390" y="209" font-size="10" text-anchor="middle" fill="#047857">tool (skill)</text>

<!-- Step 3: TA Skill → MCP Server -->
<circle cx="590" cy="230" r="11" fill="#D97706"/>
<text x="590" y="234" font-size="10" font-weight="bold" text-anchor="middle" fill="white">3</text>
<line x1="522" y1="230" x2="607" y2="230" stroke="#D97706" stroke-width="2" marker-end="url(#arr)"/>
<text x="566" y="222" font-size="10" text-anchor="middle" fill="#92400E">HTTP POST</text>
<text x="566" y="234" font-size="10" text-anchor="middle" fill="#92400E">:8999/mcp</text>

<!-- Step 4: MCP Server → TA API -->
<circle cx="755" cy="255" r="11" fill="#4F46E5"/>
<text x="755" y="259" font-size="10" font-weight="bold" text-anchor="middle" fill="white">4</text>
<line x1="672" y1="255" x2="772" y2="255" stroke="#4F46E5" stroke-width="2" marker-end="url(#arr-b)"/>
<text x="716" y="247" font-size="10" text-anchor="middle" fill="#3730A3">POST /api/chat</text>
<text x="716" y="259" font-size="10" text-anchor="middle" fill="#3730A3">:8000</text>

<!-- Step 5: TA API → RAG Server -->
<circle cx="900" cy="280" r="11" fill="#7C3AED"/>
<text x="900" y="284" font-size="10" font-weight="bold" text-anchor="middle" fill="white">5</text>
<line x1="822" y1="280" x2="917" y2="280" stroke="#7C3AED" stroke-width="2" marker-end="url(#arr-p)"/>
<text x="871" y="272" font-size="10" text-anchor="middle" fill="#5B21B6">RAG query</text>
<text x="871" y="284" font-size="10" text-anchor="middle" fill="#5B21B6">:8081/query</text>

<!-- Step 6: RAG Server → Milvus -->
<circle cx="1060" cy="280" r="11" fill="#7C3AED"/>
<text x="1060" y="284" font-size="10" font-weight="bold" text-anchor="middle" fill="white">6</text>
<line x1="992" y1="280" x2="1077" y2="280" stroke="#7C3AED" stroke-width="2" marker-end="url(#arr-p)"/>
<text x="1036" y="272" font-size="10" text-anchor="middle" fill="#5B21B6">embed + search</text>
<text x="1036" y="284" font-size="10" text-anchor="middle" fill="#5B21B6">top-k vectors</text>

<!-- Response path (dashed, going back left) -->
<path d="M 1140 292 L 1140 310 L 140 310 L 140 295" stroke="#059669" stroke-width="1.5" stroke-dasharray="5,3" fill="none" marker-end="url(#arr-g)"/>
<text x="640" y="323" font-size="10" text-anchor="middle" fill="#059669">↩  answer flows back  (Milvus → RAG → API → MCP → Skill → Agent → User)</text>

<!-- ════════════════════════════════════════════════════════════════ -->
<!-- ACTOR HEADERS (BOTTOM, repeated at y=395)                      -->
<!-- ════════════════════════════════════════════════════════════════ -->
<rect x="60" y="400" width="160" height="52" rx="8" fill="#FFFBEB" stroke="#FBBF24" stroke-width="2"/>
<text x="140" y="421" font-size="13" font-weight="bold" text-anchor="middle" fill="#78350F">User</text>
<text x="140" y="437" font-size="10" text-anchor="middle" fill="#92400E">Browser</text>

<rect x="250" y="400" width="160" height="52" rx="8" fill="#ECFDF5" stroke="#34D399" stroke-width="2"/>
<text x="330" y="421" font-size="13" font-weight="bold" text-anchor="middle" fill="#065F46">OpenClaw</text>
<text x="330" y="437" font-size="10" text-anchor="middle" fill="#047857">Agent + TA Skill</text>

<rect x="430" y="400" width="160" height="52" rx="8" fill="#FEF3C7" stroke="#F59E0B" stroke-width="2"/>
<text x="510" y="421" font-size="13" font-weight="bold" text-anchor="middle" fill="#78350F">MCP Server</text>
<text x="510" y="437" font-size="10" text-anchor="middle" fill="#92400E">port 8999</text>

<rect x="600" y="400" width="160" height="52" rx="8" fill="#DBEAFE" stroke="#3B82F6" stroke-width="2"/>
<text x="680" y="421" font-size="13" font-weight="bold" text-anchor="middle" fill="#1E3A8A">TA API</text>
<text x="680" y="437" font-size="10" text-anchor="middle" fill="#1D4ED8">port 8000</text>

<rect x="772" y="400" width="160" height="52" rx="8" fill="#EDE9FE" stroke="#8B5CF6" stroke-width="2"/>
<text x="852" y="421" font-size="13" font-weight="bold" text-anchor="middle" fill="#4C1D95">Ingestor</text>
<text x="852" y="437" font-size="10" text-anchor="middle" fill="#5B21B6">port 8082</text>

<rect x="944" y="400" width="160" height="52" rx="8" fill="#F5F3FF" stroke="#7C3AED" stroke-width="2"/>
<text x="1024" y="421" font-size="13" font-weight="bold" text-anchor="middle" fill="#4C1D95">Milvus</text>
<text x="1024" y="437" font-size="10" text-anchor="middle" fill="#5B21B6">Vector DB</text>

<rect x="1112" y="400" width="148" height="52" rx="8" fill="#DBEAFE" stroke="#3B82F6" stroke-width="2"/>
<text x="1186" y="421" font-size="13" font-weight="bold" text-anchor="middle" fill="#1E3A8A">agenticta</text>
<text x="1186" y="437" font-size="10" text-anchor="middle" fill="#1D4ED8">curriculum · state</text>

<!-- Vertical swim-lane lines (bottom) -->
<line x1="140" y1="452" x2="140" y2="595" stroke="#E2E8F0" stroke-width="1" stroke-dasharray="4,4"/>
<line x1="330" y1="452" x2="330" y2="595" stroke="#E2E8F0" stroke-width="1" stroke-dasharray="4,4"/>
<line x1="510" y1="452" x2="510" y2="595" stroke="#E2E8F0" stroke-width="1" stroke-dasharray="4,4"/>
<line x1="680" y1="452" x2="680" y2="595" stroke="#E2E8F0" stroke-width="1" stroke-dasharray="4,4"/>
<line x1="852" y1="452" x2="852" y2="595" stroke="#E2E8F0" stroke-width="1" stroke-dasharray="4,4"/>
<line x1="1024" y1="452" x2="1024" y2="595" stroke="#E2E8F0" stroke-width="1" stroke-dasharray="4,4"/>
<line x1="1186" y1="452" x2="1186" y2="595" stroke="#E2E8F0" stroke-width="1" stroke-dasharray="4,4"/>

<!-- ════ BOTTOM FLOW STEPS (PDF Upload) ════ -->

<!-- Step 1: User asks Agent to upload -->
<circle cx="236" cy="468" r="11" fill="#0F172A"/>
<text x="236" y="472" font-size="10" font-weight="bold" text-anchor="middle" fill="white">1</text>
<line x1="152" y1="468" x2="253" y2="468" stroke="#334155" stroke-width="2" marker-end="url(#arr)"/>
<text x="196" y="460" font-size="10" text-anchor="middle" fill="#334155">"Upload my PDF"</text>

<!-- Step 2: Agent → TA Skill get_upload_link -->
<circle cx="420" cy="488" r="11" fill="#059669"/>
<text x="420" y="492" font-size="10" font-weight="bold" text-anchor="middle" fill="white">2</text>
<line x1="342" y1="488" x2="437" y2="488" stroke="#059669" stroke-width="2" marker-end="url(#arr-g)"/>
<text x="390" y="479" font-size="10" text-anchor="middle" fill="#047857">get_upload_link</text>
<text x="390" y="491" font-size="10" text-anchor="middle" fill="#047857">(user_id)</text>

<!-- Step 3: → MCP → API → returns URL -->
<circle cx="620" cy="488" r="11" fill="#D97706"/>
<text x="620" y="492" font-size="10" font-weight="bold" text-anchor="middle" fill="white">3</text>
<line x1="432" y1="488" x2="637" y2="488" stroke="#D97706" stroke-width="2" marker-end="url(#arr)"/>
<text x="536" y="479" font-size="10" text-anchor="middle" fill="#92400E">MCP → API</text>
<text x="536" y="491" font-size="10" text-anchor="middle" fill="#92400E">returns URL</text>

<!-- URL returned to User -->
<path d="M 680 499 L 680 520 L 140 520 L 140 480" stroke="#4F46E5" stroke-width="1.5" stroke-dasharray="5,3" fill="none" marker-end="url(#arr-b)"/>
<text x="410" y="534" font-size="10" text-anchor="middle" fill="#3730A3">http://127.0.0.1:8000/upload?user_id=…  returned to user</text>

<!-- Step 4: User opens URL in browser → uploads PDF -->
<circle cx="610" cy="550" r="11" fill="#D97706"/>
<text x="610" y="554" font-size="10" font-weight="bold" text-anchor="middle" fill="white">4</text>
<line x1="152" y1="550" x2="627" y2="550" stroke="#D97706" stroke-width="2" stroke-dasharray="6,3" marker-end="url(#arr)"/>
<text x="390" y="542" font-size="10" text-anchor="middle" fill="#92400E">opens URL in browser · selects PDF · clicks Upload</text>
<text x="295" y="557" font-size="10" text-anchor="middle" fill="#B45309">(via brev tunnel · port 8000)</text>

<!-- Step 5: TA API → Ingestor -->
<circle cx="764" cy="570" r="11" fill="#7C3AED"/>
<text x="764" y="574" font-size="10" font-weight="bold" text-anchor="middle" fill="white">5</text>
<line x1="692" y1="570" x2="781" y2="570" stroke="#7C3AED" stroke-width="2" marker-end="url(#arr-p)"/>
<text x="727" y="562" font-size="10" text-anchor="middle" fill="#5B21B6">POST PDF</text>
<text x="727" y="574" font-size="10" text-anchor="middle" fill="#5B21B6">:8082</text>

<!-- Step 6: Ingestor → Milvus (store) -->
<circle cx="936" cy="570" r="11" fill="#7C3AED"/>
<text x="936" y="574" font-size="10" font-weight="bold" text-anchor="middle" fill="white">6</text>
<line x1="864" y1="570" x2="953" y2="570" stroke="#7C3AED" stroke-width="2" marker-end="url(#arr-p)"/>
<text x="908" y="562" font-size="10" text-anchor="middle" fill="#5B21B6">store</text>
<text x="908" y="574" font-size="10" text-anchor="middle" fill="#5B21B6">vectors</text>

<!-- Step 7: generate_curriculum → agenticta state -->
<circle cx="1112" cy="570" r="11" fill="#2563EB"/>
<text x="1112" y="574" font-size="10" font-weight="bold" text-anchor="middle" fill="white">7</text>
<line x1="1036" y1="570" x2="1129" y2="570" stroke="#2563EB" stroke-width="2" marker-end="url(#arr-b)"/>
<text x="1083" y="562" font-size="10" text-anchor="middle" fill="#1D4ED8">generate</text>
<text x="1083" y="574" font-size="10" text-anchor="middle" fill="#1D4ED8">curriculum</text>

<!-- ════════════════════════════════════════════════════════════════ -->
<!-- SEPARATOR between flows                                         -->
<!-- ════════════════════════════════════════════════════════════════ -->
<line x1="20" y1="345" x2="1260" y2="345" stroke="#CBD5E1" stroke-width="1.5" stroke-dasharray="6,4"/>

<!-- ════════════════════════════════════════════════════════════════ -->
<!-- LEGEND / FOOTER                                                  -->
<!-- ════════════════════════════════════════════════════════════════ -->
<rect x="20" y="606" width="1240" height="44" rx="8" fill="#F1F5F9" stroke="#E2E8F0" stroke-width="1"/>
<text x="640" y="623" font-size="11" font-weight="bold" text-anchor="middle" fill="#334155">Key Tools called by the AI Agent</text>
<text x="640" y="640" font-size="10" text-anchor="middle" fill="#475569">chat_message · generate_curriculum · list_subtopics · generate_quiz · submit_quiz · get_upload_link · book_calendar · youtube_search · health_check · delete_user_data</text>
</svg>
